# xmcd
#
# Track frame offsets: 
#        150
#        13925
#        32828
#        49829
#        66929
#        86086
#        99222
#        117253
#        136637
#        154962
#        171981
#        188399
#
# Disc length: 2741 seconds
#
# Revision: 0
# Processed by: cddbd v1.5.2PL0 Copyright (c) Steve Scherf et al.
# Submitted via: ExactAudioCopy v0.95b4
#
DISCID=980ab30c
DTITLE=Little Texas - Missing Years
DYEAR=2007
DGENRE=Country Rock
TTITLE0=Gotta Get Me Down Home
TTITLE1=Missing Years
TTITLE2=Rebel
TTITLE3=Knees
TTITLE4=A Reason
TTITLE5=Party Life
TTITLE6=Texas 101
TTITLE7=So Long
TTITLE8=When He's Gone
TTITLE9=You Ain't Seen Me Lately
TTITLE10=Your Blues
TTITLE11=Your Woman
EXTD=
EXTT0=
EXTT1=
EXTT2=
EXTT3=
EXTT4=
EXTT5=
EXTT6=
EXTT7=
EXTT8=
EXTT9=
EXTT10=
EXTT11=
PLAYORDER=
